#!OML:ASF E:\emotionWalksFemale\Project 1\Capture day 1\Session 1\Female1.ASF
:FULLY-SPECIFIED
:DEGREES
55
root 8.61559 15.1395 41.4626 180.462 -15.8745 -179.784
lowerback 4.40215 1.55162 1.55218
upperback -4.21834 2.1537 0.933202
thorax -6.8465 0.966739 -0.110692
lowerneck 0.873575 3.04842 -4.17844
upperneck 14.4691 2.95994 4.72403
head 4.49748 1.13594 2.4326
rclavicle -4.32357e-015 -6.75868e-015
rhumerus -43.201 10.3375 -87.8242
rradius 30.0465
rwrist 22.19
rhand -15.4461 -63.1707
rfingers 7.12502
rthumb 10.7344 92.8765
lclavicle -4.32357e-015 -6.75868e-015
lhumerus -43.1672 -8.78691 91.0317
lradius 36.5424
lwrist -20.2874
lhand -9.65729 -33.9947
lfingers 7.12502
lthumb 16.3136 -4.66089
rfemur -1.98381 14.8034 25.8863
rtibia 25.9795
rfoot -26.3256 -33.0649
rtoes -1.38276
lfemur -10.7245 -23.0194 -21.4223
ltibia 31.663
lfoot -23.9699 13.5796
ltoes -44.1885
56
root 8.61695 15.1377 41.464 180.348 -15.5678 -179.659
lowerback 4.4006 1.54295 1.58114
upperback -4.1918 2.14697 0.991408
thorax -6.81876 0.963795 -0.0650761
lowerneck 1.44278 2.77504 -4.12354
upperneck 14.2799 2.58451 4.42203
head 4.33966 0.928236 2.28833
rclavicle 3.43897e-014 7.95139e-016
rhumerus -42.9839 9.96293 -87.0687
rradius 30.0255
rwrist 22.2603
rhand -15.5127 -63.2912
rfingers 7.12502
rthumb 10.6702 93.0003
lclavicle 3.43897e-014 7.95139e-016
lhumerus -42.6024 -8.24485 90.3176
lradius 36.0111
lwrist -20.1961
lhand -7.91875 -33.4652
lfingers 7.12502
lthumb 17.987 -4.2769
rfemur -1.95819 14.7664 25.9871
rtibia 25.9971
rfoot -26.1299 -32.6514
rtoes -1.73673
lfemur -10.6091 -22.7873 -21.3255
ltibia 31.6961
lfoot -24.2177 13.4295
ltoes -43.2284
57
root 8.61747 15.1364 41.4629 180.235 -15.1502 -179.574
lowerback 4.35595 1.56371 1.59651
upperback -4.13995 2.17736 1.04084
thorax -6.73895 0.980542 -0.0232875
lowerneck 2.06091 2.47226 -4.06949
upperneck 13.9846 2.18036 4.08056
head 4.13551 0.708524 2.13043
rclavicle -6.60959e-015 1.90833e-014
rhumerus -42.6903 9.78597 -86.4637
rradius 29.9376
rwrist 22.0471
rhand -15.4503 -63.6881
rfingers 7.12502
rthumb 10.7304 93.394
lclavicle -6.60959e-015 1.90833e-014
lhumerus -41.8657 -7.3212 89.3966
lradius 35.4501
lwrist -19.3719
lhand -8.05512 -33.6347
lfingers 7.12502
lthumb 17.8558 -4.43439
rfemur -1.93167 14.7853 26.0349
rtibia 26.015
rfoot -25.6505 -32.3146
rtoes -2.85048
lfemur -10.4594 -22.5618 -21.2998
ltibia 31.7436
lfoot -24.3422 13.4075
ltoes -43.0257
58
root 8.61869 15.1361 41.4621 180.256 -14.6791 -179.649
lowerback 4.21704 1.59296 1.3994
upperback -4.10534 2.19989 1.07525
thorax -6.63033 1.00323 0.124868
lowerneck 2.57106 2.28673 -4.08845
upperneck 13.7766 1.91946 3.88499
head 3.97614 0.561775 2.04666
rclavicle -6.22693e-014 1.66979e-014
rhumerus -42.3787 9.68474 -85.9457
rradius 29.7557
rwrist 21.8326
rhand -15.9202 -62.9777
rfingers 7.12502
rthumb 10.2771 92.7067
lclavicle -6.22693e-014 1.66979e-014
lhumerus -41.1224 -6.13144 88.3025
lradius 34.5748
lwrist -19.634
lhand -5.73618 -35.9115
lfingers 7.12502
lthumb 20.0859 -6.92972
rfemur -2.02397 14.8518 25.8711
rtibia 26.0605
rfoot -25.4273 -32.121
rtoes -3.30159
lfemur -10.3927 -22.5091 -21.4177
ltibia 31.7811
lfoot -24.4303 13.629
ltoes -42.4689
59
root 8.62024 15.1347 41.4633 180.292 -14.3656 -179.681
lowerback 4.03619 1.56654 1.23718
upperback -4.05203 2.1503 1.1133
thorax -6.47703 0.989037 0.26566
lowerneck 2.70131 2.13351 -4.03236
upperneck 13.955 1.70242 3.60235
head 4.02685 0.431257 1.93573
rclavicle 4.15957e-014 -2.38542e-015
rhumerus -42.2754 9.66536 -85.5034
rradius 29.9522
rwrist 21.5575
rhand -16.6011 -62.2866
rfingers 7.12502
rthumb 9.62021 92.0469
lclavicle 4.15957e-014 -2.38542e-015
lhumerus -40.4975 -5.33517 87.4051
lradius 33.9133
lwrist -20.8646
lhand -6.27729 -36.5532
lfingers 7.12502
lthumb 19.5658 -7.5177
rfemur -2.15704 14.8141 25.7634
rtibia 26.1505
rfoot -25.5521 -31.8837
rtoes -2.96801
lfemur -10.3807 -22.3795 -21.448
ltibia 31.7963
lfoot -24.5409 13.7927
ltoes -42.592
60
root 8.61807 15.1306 41.4645 180.194 -14.1922 -179.681
lowerback 4.00584 1.51327 1.25409
upperback -3.98036 2.08043 1.09176
thorax -6.38223 0.955574 0.241928
lowerneck 2.71532 1.95578 -4.05325
upperneck 14.2545 1.42346 3.54247
head 4.14525 0.27191 1.91691
rclavicle -3.09607e-014 -1.98785e-014
rhumerus -42.0808 9.47588 -85.0107
rradius 30.0758
rwrist 21.5882
rhand -16.4229 -62.7911
rfingers 7.12502
rthumb 9.79217 92.5434
lclavicle -3.09607e-014 -1.98785e-014
lhumerus -39.916 -4.78086 86.53
lradius 33.3651
lwrist -22.2349
lhand -7.44403 -36.471
lfingers 7.12502
lthumb 18.4437 -7.32541
rfemur -2.14331 14.6127 25.7256
rtibia 26.2434
rfoot -25.5536 -31.4467
rtoes -2.53097
lfemur -10.2589 -22.1472 -21.4985
ltibia 31.8285
lfoot -24.5265 13.884
ltoes -43.0444
61
root 8.61483 15.1245 41.4647 179.997 -13.9306 -179.725
lowerback 4.13115 1.47835 1.22118
upperback -3.91112 2.03677 1.07038
thorax -6.38157 0.937291 0.239472
lowerneck 3.41636 1.97412 -4.5883
upperneck 13.7034 1.34587 4.38552
head 3.81614 0.238158 2.28053
rclavicle -1.10822e-014 -1.03368e-014
rhumerus -41.7185 9.33283 -84.4589
rradius 29.913
rwrist 21.9089
rhand -15.827 -62.9778
rfingers 7.12502
rthumb 10.367 92.7023
lclavicle -1.10822e-014 -1.03368e-014
lhumerus -39.4545 -4.24479 85.64
lradius 33.1211
lwrist -22.5239
lhand -6.85496 -36.2729
lfingers 7.12502
lthumb 19.0103 -7.18193
rfemur -1.96953 14.5543 25.6694
rtibia 26.2794
rfoot -25.4787 -31.0278
rtoes -2.17045
lfemur -9.98991 -22.1336 -21.6908
ltibia 31.9256
lfoot -24.4989 14.3356
ltoes -43.4123
62
root 8.61327 15.1157 41.4646 179.737 -13.723 -179.693
lowerback 4.2889 1.39739 1.15056
upperback -3.82297 1.93301 1.12513
thorax -6.38376 0.892826 0.342697
lowerneck 2.88017 1.57944 -3.59465
upperneck 14.5049 0.925396 2.86429
head 4.22638 -0.000144527 1.59147
rclavicle -2.63887e-014 -3.10104e-014
rhumerus -41.6345 9.76817 -84.1442
rradius 30.202
rwrist 21.6846
rhand -15.4929 -63.0998
rfingers 7.12502
rthumb 10.6893 92.8079
lclavicle -2.63887e-014 -3.10104e-014
lhumerus -39.0875 -3.69379 84.8492
lradius 32.9688
lwrist -22.7164
lhand -7.4306 -36.39
lfingers 7.12502
lthumb 18.4566 -7.24562
rfemur -1.71799 14.6181 25.7416
rtibia 26.2868
rfoot -25.4639 -31.0454
rtoes -2.87953
lfemur -9.70286 -22.0844 -21.7879
ltibia 32.0616
lfoot -24.5728 14.548
ltoes -43.0569
63
root 8.61191 15.1092 41.4643 179.468 -13.671 -179.512
lowerback 4.42113 1.26316 1.26808
upperback -3.74358 1.77011 1.20089
thorax -6.37501 0.810211 0.369319
lowerneck 2.77523 1.67406 -3.86747
upperneck 15.0051 0.936906 3.36981
head 4.42978 -0.0142467 1.82079
rclavicle 4.79568e-014 1.47101e-014
rhumerus -41.9009 10.5832 -84.0844
rradius 30.9751
rwrist 20.9339
rhand -15.5121 -63.4833
rfingers 7.12502
rthumb 10.6708 93.1924
lclavicle 4.79568e-014 1.47101e-014
lhumerus -38.717 -3.1511 84.1004
lradius 32.7214
lwrist -23.0722
lhand -6.14744 -36.5532
lfingers 7.12502
lthumb 19.6906 -7.53051
rfemur -1.48036 14.5789 25.9998
rtibia 26.3014
rfoot -25.2331 -31.2367
rtoes -4.3641
lfemur -9.51184 -21.864 -21.6536
ltibia 32.1969
lfoot -24.704 14.3002
ltoes -42.7987
